<svg width="199" height="31" viewBox="0 0 199 31" fill="none" xmlns="http://www.w3.org/2000/svg">
<path d="M198.967 0.94931H0.402588V23.1988C2.50842 27.7082 7.06042 30.8563 12.3782 30.8563C19.6741 30.8563 25.5875 24.943 25.5875 17.6471C25.5875 24.943 31.5008 30.8563 38.7967 30.8563C46.0927 30.8563 52.006 24.943 52.006 17.6471C52.006 24.943 57.9194 30.8563 65.2153 30.8563C72.5113 30.8563 78.4246 24.943 78.4246 17.6471C78.4246 24.943 84.338 30.8563 91.6339 30.8563C98.9299 30.8563 104.843 24.943 104.843 17.6471C104.843 24.943 110.757 30.8563 118.053 30.8563C125.348 30.8563 131.262 24.943 131.262 17.6471C131.262 24.943 137.175 30.8563 144.471 30.8563C151.767 30.8563 157.68 24.943 157.68 17.6471C157.68 24.943 163.594 30.8563 170.89 30.8563C178.186 30.8563 184.099 24.943 184.099 17.6471C184.099 24.943 190.012 30.8563 197.308 30.8563C197.861 30.8563 198.414 30.8138 198.946 30.75V0.94931H198.967Z" fill="#1D2A36"/>
</svg>
