<svg width="212" height="31" viewBox="0 0 212 31" fill="none" xmlns="http://www.w3.org/2000/svg">
<path d="M13.2093 30.8613C5.91332 30.8613 0 24.948 0 17.652V0.954285H26.4186V17.652C26.4186 24.948 20.5052 30.8613 13.2093 30.8613Z" fill="#F1C40F"/>
<path d="M39.6279 30.8613C32.3319 30.8613 26.4186 24.948 26.4186 17.652V0.954285H52.8372V17.652C52.8372 24.948 46.9239 30.8613 39.6279 30.8613Z" fill="#C0392B"/>
<path d="M66.0465 30.8613C58.7505 30.8613 52.8372 24.948 52.8372 17.652V0.954285H79.2558V17.652C79.2558 24.948 73.3424 30.8613 66.0465 30.8613Z" fill="#F1C40F"/>
<path d="M92.4864 30.8613C85.1904 30.8613 79.277 24.948 79.277 17.652V0.954285H105.696V17.652C105.696 24.948 99.7823 30.8613 92.4864 30.8613Z" fill="#C0392B"/>
<path d="M118.905 30.8613C111.609 30.8613 105.696 24.948 105.696 17.652V0.954285H132.114V17.652C132.114 24.948 126.201 30.8613 118.905 30.8613Z" fill="#F1C40F"/>
<path d="M145.324 30.8613C138.028 30.8613 132.114 24.948 132.114 17.652V0.954285H158.533V17.652C158.533 24.948 152.619 30.8613 145.324 30.8613Z" fill="#C0392B"/>
<path d="M171.742 30.8613C164.446 30.8613 158.533 24.948 158.533 17.652V0.954285H184.951V17.652C184.951 24.948 179.038 30.8613 171.742 30.8613Z" fill="#F1C40F"/>
<path d="M198.161 30.8613C190.865 30.8613 184.951 24.948 184.951 17.652V0.954285H211.37V17.652C211.37 24.948 205.457 30.8613 198.161 30.8613Z" fill="#C0392B"/>
</svg>
